<svg id="Capa_1" enable-background="new 0 0 513.12 513.12" height="512" viewBox="0 0 513.12 513.12" width="512" xmlns="http://www.w3.org/2000/svg"><path d="m385.492 242.764c-6.522-58.308-55.543-102.204-114.28-102.204h-1.302c12.625-14.837 20.269-34.038 20.269-55 0-46.869-38.131-85-85-85s-85 38.131-85 85c0 20.962 7.643 40.163 20.269 55h-1.302c-58.937 0-108.097 44.193-114.351 102.797l-24.598 230.489c-1.052 9.858 2.146 19.74 8.774 27.113 6.627 7.373 16.114 11.601 26.029 11.601h340.357c.298 0 .595-.016.893-.024.623.009 1.245.024 1.87.024 74.439 0 135-60.561 135-135 0-71.966-56.604-130.955-127.628-134.796zm-7.372 239.796c-57.897 0-105-47.103-105-105s47.103-105 105-105 105 47.103 105 105-47.103 105-105 105zm-227.942-397c0-30.327 24.673-55 55-55s55 24.673 55 55-24.673 55-55 55-55-24.673-55-55zm-115.178 397c-1.939 0-3.162-1.039-3.719-1.657-.556-.619-1.459-1.945-1.253-3.873l24.597-230.489c4.623-43.316 40.958-75.98 84.52-75.98h132.067c42.863 0 78.707 31.633 84.25 73.912-63.689 10.808-112.342 66.368-112.342 133.087 0 42.367 19.623 80.231 50.251 105z"/><path d="m416.806 331.393-60.515 60.514-16.856-16.855c-5.857-5.858-15.355-5.858-21.213 0s-5.858 15.355 0 21.213l27.462 27.462c2.929 2.929 6.767 4.394 10.606 4.394 3.838 0 7.678-1.465 10.606-4.394l71.122-71.121c5.858-5.857 5.858-15.355 0-21.213-5.857-5.857-15.354-5.858-21.212 0z"/></svg>